<svg width="143" height="28" viewBox="0 0 143 28" fill="none" xmlns="http://www.w3.org/2000/svg">
<path d="M46.963 23V6.48583H50.288L56.4725 14.6875H54.9208L60.928 6.48583H64.253V23H60.8172V10.2763L62.1915 10.5867L55.8297 18.7883H55.3863L49.2462 10.5867L50.3988 10.2763V23H46.963ZM69.2884 27.921C68.9338 27.921 68.5865 27.8914 68.2466 27.8323C67.9215 27.7732 67.6333 27.6772 67.3821 27.5442V24.8177C67.589 24.8768 67.8328 24.9285 68.1136 24.9728C68.3944 25.0172 68.653 25.0393 68.8894 25.0393C69.5396 25.0393 70.0051 24.8842 70.2859 24.5738C70.5667 24.2635 70.7958 23.9088 70.9731 23.5098L71.7933 21.6257L71.7489 24.3965L66.4289 10.897H69.9978L73.5223 20.4952H72.1923L75.7168 10.897H79.2856L74.0986 24.1305C73.7735 24.9728 73.3745 25.6748 72.9016 26.2363C72.4287 26.7979 71.8893 27.2191 71.2834 27.4998C70.6923 27.7806 70.0273 27.921 69.2884 27.921Z" fill="black"/>
<path d="M85.8991 23V6.48583H97.2041V9.47833H89.335V13.6678H96.0958V16.6603H89.335V23H85.8991ZM104.923 23.266C103.726 23.266 102.632 22.9926 101.642 22.4458C100.667 21.8991 99.8834 21.1528 99.2923 20.207C98.7159 19.2464 98.4278 18.1603 98.4278 16.9485C98.4278 15.7219 98.7159 14.6358 99.2923 13.69C99.8834 12.7442 100.667 11.9979 101.642 11.4512C102.632 10.9044 103.726 10.631 104.923 10.631C106.12 10.631 107.206 10.9044 108.181 11.4512C109.156 11.9979 109.932 12.7442 110.509 13.69C111.1 14.6358 111.395 15.7219 111.395 16.9485C111.395 18.1603 111.1 19.2464 110.509 20.207C109.932 21.1528 109.156 21.8991 108.181 22.4458C107.206 22.9926 106.12 23.266 104.923 23.266ZM104.923 20.2735C105.528 20.2735 106.053 20.1331 106.496 19.8523C106.955 19.5716 107.309 19.1799 107.56 18.6775C107.826 18.1751 107.959 17.5987 107.959 16.9485C107.959 16.2983 107.826 15.7293 107.56 15.2417C107.309 14.7392 106.955 14.3476 106.496 14.0668C106.053 13.7713 105.528 13.6235 104.923 13.6235C104.317 13.6235 103.785 13.7713 103.327 14.0668C102.868 14.3476 102.506 14.7392 102.24 15.2417C101.989 15.7293 101.864 16.2983 101.864 16.9485C101.864 17.5987 101.989 18.1751 102.24 18.6775C102.506 19.1799 102.868 19.5716 103.327 19.8523C103.785 20.1331 104.317 20.2735 104.923 20.2735ZM119.828 23.266C118.631 23.266 117.537 22.9926 116.547 22.4458C115.572 21.8991 114.789 21.1528 114.198 20.207C113.621 19.2464 113.333 18.1603 113.333 16.9485C113.333 15.7219 113.621 14.6358 114.198 13.69C114.789 12.7442 115.572 11.9979 116.547 11.4512C117.537 10.9044 118.631 10.631 119.828 10.631C121.025 10.631 122.111 10.9044 123.086 11.4512C124.062 11.9979 124.838 12.7442 125.414 13.69C126.005 14.6358 126.301 15.7219 126.301 16.9485C126.301 18.1603 126.005 19.2464 125.414 20.207C124.838 21.1528 124.062 21.8991 123.086 22.4458C122.111 22.9926 121.025 23.266 119.828 23.266ZM119.828 20.2735C120.434 20.2735 120.958 20.1331 121.402 19.8523C121.86 19.5716 122.215 19.1799 122.466 18.6775C122.732 18.1751 122.865 17.5987 122.865 16.9485C122.865 16.2983 122.732 15.7293 122.466 15.2417C122.215 14.7392 121.86 14.3476 121.402 14.0668C120.958 13.7713 120.434 13.6235 119.828 13.6235C119.222 13.6235 118.69 13.7713 118.232 14.0668C117.774 14.3476 117.412 14.7392 117.146 15.2417C116.895 15.7293 116.769 16.2983 116.769 16.9485C116.769 17.5987 116.895 18.1751 117.146 18.6775C117.412 19.1799 117.774 19.5716 118.232 19.8523C118.69 20.1331 119.222 20.2735 119.828 20.2735ZM134.423 23.266C133.241 23.266 132.184 22.9852 131.253 22.4237C130.322 21.8621 129.583 21.1011 129.036 20.1405C128.504 19.1799 128.238 18.1159 128.238 16.9485C128.238 15.7663 128.512 14.7023 129.059 13.7565C129.605 12.7959 130.344 12.0349 131.275 11.4733C132.206 10.9118 133.248 10.631 134.401 10.631C135.287 10.631 136.071 10.8009 136.75 11.1408C137.445 11.4659 137.992 11.9314 138.391 12.5373L137.881 13.2023V6.21983H141.206V23H138.103V20.7833L138.413 21.4705C137.999 22.0616 137.438 22.5123 136.728 22.8227C136.019 23.1182 135.25 23.266 134.423 23.266ZM134.822 20.2735C135.428 20.2735 135.96 20.1331 136.418 19.8523C136.876 19.5716 137.231 19.1799 137.482 18.6775C137.748 18.1751 137.881 17.5987 137.881 16.9485C137.881 16.2983 137.748 15.7219 137.482 15.2195C137.231 14.7171 136.876 14.3254 136.418 14.0447C135.96 13.7639 135.428 13.6235 134.822 13.6235C134.216 13.6235 133.669 13.7713 133.182 14.0668C132.709 14.3476 132.339 14.7392 132.073 15.2417C131.807 15.7293 131.674 16.2983 131.674 16.9485C131.674 17.5987 131.807 18.1751 132.073 18.6775C132.339 19.1799 132.709 19.5716 133.182 19.8523C133.669 20.1331 134.216 20.2735 134.822 20.2735Z" fill="url(#paint0_linear_533_2)"/>
<path d="M21 3.5C21.2858 3.50004 21.5616 3.60495 21.7751 3.79483C21.9887 3.98472 22.1251 4.24637 22.1585 4.53017L22.1667 4.66667V23.3333C22.1664 23.6307 22.0525 23.9167 21.8484 24.1329C21.6443 24.3492 21.3653 24.4793 21.0684 24.4967C20.7716 24.5141 20.4793 24.4175 20.2512 24.2267C20.0232 24.0358 19.8767 23.7651 19.8415 23.4698L19.8334 23.3333V17.5H18.6667C18.381 17.5 18.1051 17.3951 17.8916 17.2052C17.6781 17.0153 17.5416 16.7536 17.5082 16.4698L17.5 16.3333V9.33333C17.5 6.755 19.25 3.5 21 3.5ZM14 3.5C14.2858 3.50004 14.5616 3.60495 14.7751 3.79483C14.9887 3.98472 15.1251 4.24637 15.1585 4.53017L15.1667 4.66667V10.5C15.1666 11.5347 14.8227 12.54 14.1892 13.3581C13.5557 14.1761 12.6684 14.7606 11.6667 15.0197V23.3333C11.6664 23.6307 11.5525 23.9167 11.3484 24.1329C11.1443 24.3492 10.8653 24.4793 10.5684 24.4967C10.2716 24.5141 9.97927 24.4175 9.75124 24.2267C9.52321 24.0358 9.37666 23.7651 9.34154 23.4698L9.33337 23.3333V15.0197C8.3714 14.771 7.51385 14.2219 6.88543 13.4523C6.25702 12.6826 5.89051 11.7326 5.83921 10.7403L5.83337 10.5V4.66667C5.8337 4.36931 5.94757 4.0833 6.1517 3.86707C6.35583 3.65084 6.63482 3.52073 6.93167 3.5033C7.22852 3.48587 7.52082 3.58245 7.74885 3.77331C7.97687 3.96416 8.12342 4.23489 8.15854 4.53017L8.16671 4.66667V10.5C8.16672 10.9096 8.27454 11.3119 8.47933 11.6666C8.68412 12.0213 8.97867 12.3159 9.33337 12.5207V4.66667C9.3337 4.36931 9.44757 4.0833 9.6517 3.86707C9.85583 3.65084 10.1348 3.52073 10.4317 3.5033C10.7285 3.48587 11.0208 3.58245 11.2488 3.77331C11.4769 3.96416 11.6234 4.23489 11.6585 4.53017L11.6667 4.66667L11.6679 12.5207C11.9934 12.3325 12.2687 12.0684 12.4702 11.7509C12.6717 11.4334 12.7935 11.0719 12.8252 10.6972L12.8334 10.5V4.66667C12.8334 4.35725 12.9563 4.0605 13.1751 3.84171C13.3939 3.62292 13.6906 3.5 14 3.5Z" fill="url(#paint1_linear_533_2)"/>
<defs>
<linearGradient id="paint0_linear_533_2" x1="87.0714" y1="23.3333" x2="142.53" y2="14.1845" gradientUnits="userSpaceOnUse">
<stop stop-color="#C8151C"/>
<stop offset="1" stop-color="#981010"/>
</linearGradient>
<linearGradient id="paint1_linear_533_2" x1="14" y1="3.5" x2="14" y2="24.4987" gradientUnits="userSpaceOnUse">
<stop stop-color="#F71919"/>
<stop offset="1" stop-color="#910F0F"/>
</linearGradient>
</defs>
</svg>
