<svg width="22" height="22" viewBox="0 0 22 22" fill="none" xmlns="http://www.w3.org/2000/svg">
<path d="M2.75 1.375C2.38533 1.375 2.03559 1.51987 1.77773 1.77773C1.51987 2.03559 1.375 2.38533 1.375 2.75V9.05575C1.37508 9.42039 1.51999 9.77007 1.77787 10.0279L11.4029 19.6529C11.6607 19.9106 12.0104 20.0555 12.375 20.0555C12.7396 20.0555 13.0893 19.9106 13.3471 19.6529L19.6529 13.3471C19.9106 13.0893 20.0555 12.7396 20.0555 12.375C20.0555 12.0104 19.9106 11.6607 19.6529 11.4029L10.0279 1.77787C9.77007 1.51999 9.42039 1.37508 9.05575 1.375H2.75ZM8.25 6.1875C8.25 6.73451 8.0327 7.25911 7.64591 7.64591C7.25911 8.0327 6.73451 8.25 6.1875 8.25C5.64049 8.25 5.11589 8.0327 4.72909 7.64591C4.3423 7.25911 4.125 6.73451 4.125 6.1875C4.125 5.64049 4.3423 5.11589 4.72909 4.72909C5.11589 4.3423 5.64049 4.125 6.1875 4.125C6.73451 4.125 7.25911 4.3423 7.64591 4.72909C8.0327 5.11589 8.25 5.64049 8.25 6.1875Z" fill="black"/>
</svg>
