<svg width="24" height="24" viewBox="0 0 24 24" fill="none" xmlns="http://www.w3.org/2000/svg">
<g clip-path="url(#clip0_102_266)">
<path d="M0 5.39286V19.3571C0 20.6429 0.502092 21.7857 1.30544 22.6786C2.10879 23.5357 3.14644 24 4.35146 24H10.9121V21.1071H4.35146C3.4477 21.1071 2.74477 20.3214 2.74477 19.3571V5.39286C2.74477 4.42857 3.4477 3.67857 4.35146 3.67857H10.9121V0.75H4.35146C3.14644 0.75 2.10879 1.25 1.30544 2.10714C0.502092 3 0 4.10714 0 5.39286ZM7.19665 9.60714V15.1786C7.19665 15.8214 7.73222 16.3571 8.33473 16.3571H14.3933V20.75C14.3933 21.1429 14.5941 21.4643 14.9289 21.6429C15.0628 21.6786 15.1967 21.6786 15.2636 21.6786C15.4979 21.6786 15.6987 21.6071 15.8661 21.4286L23.7322 13.0357C24.1004 12.7143 24.0669 12.0714 23.7322 11.7143L15.8661 3.35714C15.3975 2.82143 14.3933 3.14286 14.3933 4V8.42857H8.33473C7.73222 8.42857 7.19665 8.96429 7.19665 9.60714Z" fill="black"/>
</g>
<defs>
<clipPath id="clip0_102_266">
<rect width="24" height="24" fill="white"/>
</clipPath>
</defs>
</svg>
