<svg width="18" height="17" viewBox="0 0 18 17" fill="none" xmlns="http://www.w3.org/2000/svg">
<path d="M11.6182 1.40137H6.07834C5.71102 1.40137 5.35874 1.54728 5.09901 1.80702C4.83928 2.06675 4.69336 2.41903 4.69336 2.78634V13.8662C4.69336 14.2335 4.83928 14.5857 5.09901 14.8455C5.35874 15.1052 5.71102 15.2511 6.07834 15.2511H11.6182C11.9856 15.2511 12.3378 15.1052 12.5976 14.8455C12.8573 14.5857 13.0032 14.2335 13.0032 13.8662V2.78634C13.0032 2.41903 12.8573 2.06675 12.5976 1.80702C12.3378 1.54728 11.9856 1.40137 11.6182 1.40137ZM9.54078 14.5586H8.1558V13.8662H9.54078V14.5586ZM11.6182 13.1737H6.07834V3.47883H11.6182V13.1737Z" fill="#C8151C"/>
</svg>
