<svg width="24" height="24" viewBox="0 0 24 24" fill="none" xmlns="http://www.w3.org/2000/svg">
<g clip-path="url(#clip0_102_249)">
<path d="M22.847 14.7983L20.8501 13.6452C21.0516 12.5577 21.0516 11.4421 20.8501 10.3546L22.847 9.20147C23.0766 9.07022 23.1798 8.79834 23.1048 8.54522C22.5845 6.87647 21.6985 5.36709 20.5407 4.11084C20.3626 3.91865 20.072 3.87178 19.847 4.00303L17.8501 5.15615C17.011 4.43428 16.0454 3.87647 15.0001 3.51084V1.20928C15.0001 0.946779 14.8173 0.717091 14.5595 0.660841C12.8391 0.276466 11.0766 0.295216 9.44071 0.660841C9.1829 0.717091 9.00009 0.946779 9.00009 1.20928V3.51553C7.95946 3.88584 6.99384 4.44365 6.15009 5.16084L4.1579 4.00772C3.92821 3.87647 3.64228 3.91865 3.46415 4.11553C2.30634 5.36709 1.4204 6.87647 0.900092 8.5499C0.820404 8.80303 0.928217 9.0749 1.1579 9.20615L3.15478 10.3593C2.95322 11.4468 2.95322 12.5624 3.15478 13.6499L1.1579 14.803C0.928217 14.9343 0.825092 15.2062 0.900092 15.4593C1.4204 17.128 2.30634 18.6374 3.46415 19.8937C3.64228 20.0858 3.9329 20.1327 4.1579 20.0015L6.15478 18.8483C6.99384 19.5702 7.95946 20.128 9.00478 20.4937V22.7999C9.00478 23.0624 9.18759 23.2921 9.4454 23.3483C11.1657 23.7327 12.9282 23.714 14.5641 23.3483C14.822 23.2921 15.0048 23.0624 15.0048 22.7999V20.4937C16.0454 20.1233 17.011 19.5655 17.8548 18.8483L19.8516 20.0015C20.0813 20.1327 20.3673 20.0905 20.5454 19.8937C21.7032 18.6421 22.5891 17.1327 23.1095 15.4593C23.1798 15.2015 23.0766 14.9296 22.847 14.7983ZM12.0001 15.7499C9.9329 15.7499 8.25009 14.0671 8.25009 11.9999C8.25009 9.93272 9.9329 8.2499 12.0001 8.2499C14.0673 8.2499 15.7501 9.93272 15.7501 11.9999C15.7501 14.0671 14.0673 15.7499 12.0001 15.7499Z" fill="black"/>
</g>
<defs>
<clipPath id="clip0_102_249">
<rect width="24" height="24" fill="white"/>
</clipPath>
</defs>
</svg>
